<svg id="btn_secondary" xmlns="http://www.w3.org/2000/svg" width="48" height="48" viewBox="0 0 48 48">
  <g id="Trazado_105876" data-name="Trazado 105876" fill="#fff">
    <path d="M 24 47.5 C 20.82729911804199 47.5 17.74976921081543 46.87873077392578 14.85289001464844 45.65346145629883 C 12.05459022521973 44.46987915039062 9.541350364685059 42.77537155151367 7.382989883422852 40.61700820922852 C 5.224629878997803 38.45864868164062 3.530119895935059 35.94541168212891 2.346539974212646 33.14710998535156 C 1.121269941329956 30.25023078918457 0.5 27.17270088195801 0.5 24 C 0.5 20.82729911804199 1.121269941329956 17.74976921081543 2.346539974212646 14.85289001464844 C 3.530119895935059 12.05459022521973 5.224629878997803 9.541350364685059 7.382989883422852 7.382989883422852 C 9.541350364685059 5.224629878997803 12.05459022521973 3.530119895935059 14.85289001464844 2.346539974212646 C 17.74976921081543 1.121269941329956 20.82729911804199 0.5 24 0.5 C 27.17270088195801 0.5 30.25023078918457 1.121269941329956 33.14710998535156 2.346539974212646 C 35.94541168212891 3.530119895935059 38.45864868164062 5.224629878997803 40.61700820922852 7.382989883422852 C 42.77537155151367 9.541350364685059 44.46987915039062 12.05459022521973 45.65346145629883 14.85289001464844 C 46.87873077392578 17.74976921081543 47.5 20.82729911804199 47.5 24 C 47.5 27.17270088195801 46.87873077392578 30.25023078918457 45.65346145629883 33.14710998535156 C 44.46987915039062 35.94541168212891 42.77537155151367 38.45864868164062 40.61700820922852 40.61700820922852 C 38.45864868164062 42.77537155151367 35.94541168212891 44.46987915039062 33.14710998535156 45.65346145629883 C 30.25023078918457 46.87873077392578 27.17270088195801 47.5 24 47.5 Z" stroke="none"/>
    <path d="M 24 1 C 20.89458084106445 1 17.8825798034668 1.607978820800781 15.04766845703125 2.807041168212891 C 12.3089599609375 3.965419769287109 9.849140167236328 5.623939514160156 7.736541748046875 7.736541748046875 C 5.623939514160156 9.849140167236328 3.965419769287109 12.3089599609375 2.807041168212891 15.04766845703125 C 1.607978820800781 17.8825798034668 1 20.89458084106445 1 24 C 1 27.10541915893555 1.607978820800781 30.1174201965332 2.807041168212891 32.95233154296875 C 3.965419769287109 35.6910400390625 5.623939514160156 38.15085983276367 7.736541748046875 40.26345825195312 C 9.849140167236328 42.37606048583984 12.3089599609375 44.03458023071289 15.04766845703125 45.19295883178711 C 17.8825798034668 46.39202117919922 20.89458084106445 47 24 47 C 27.10541915893555 47 30.1174201965332 46.39202117919922 32.95233154296875 45.19295883178711 C 35.6910400390625 44.03458023071289 38.15085983276367 42.37606048583984 40.26345825195312 40.26345825195312 C 42.37606048583984 38.15085983276367 44.03458023071289 35.6910400390625 45.19295883178711 32.95233154296875 C 46.39202117919922 30.1174201965332 47 27.10541915893555 47 24 C 47 20.89458084106445 46.39202117919922 17.8825798034668 45.19295883178711 15.04766845703125 C 44.03458023071289 12.3089599609375 42.37606048583984 9.849140167236328 40.26345825195312 7.736541748046875 C 38.15085983276367 5.623939514160156 35.6910400390625 3.965419769287109 32.95233154296875 2.807041168212891 C 30.1174201965332 1.607978820800781 27.10541915893555 1 24 1 M 24 0 C 37.25484085083008 0 48 10.74515914916992 48 24 C 48 37.25484085083008 37.25484085083008 48 24 48 C 10.74515914916992 48 0 37.25484085083008 0 24 C 0 10.74515914916992 10.74515914916992 0 24 0 Z" stroke="none" fill="#e6e6e6"/>
  </g>
  <g id="Grupo_54180" data-name="Grupo 54180" transform="translate(-85.674 2.27)">
    <g id="Page-1" transform="translate(99.5 14.73)">
      <g id="Artboard" transform="translate(0 0)">
        <g id="filter">
          <path id="Shape" d="M20.174,0H0L8.07,9.542v6.6L12.1,18.156V9.542Z" fill="none" stroke="#008dd8" stroke-linecap="round" stroke-linejoin="round" stroke-width="2" fill-rule="evenodd"/>
        </g>
      </g>
    </g>
  </g>
</svg>
