<svg id="btn_see_more_circle" xmlns="http://www.w3.org/2000/svg" width="32" height="32" viewBox="0 0 32 32">
  <circle id="Elipse_76" data-name="Elipse 76" cx="16" cy="16" r="16" fill="#07213e"/>
  <g id="ic_arrow_next_white" transform="translate(7.774 7.982)">
    <path id="Icon_awesome-arrow-right" data-name="Icon awesome-arrow-right" d="M7,3.721l.815-.815a.878.878,0,0,1,1.245,0l7.138,7.135a.878.878,0,0,1,0,1.245L9.055,18.424a.878.878,0,0,1-1.245,0L7,17.609a.882.882,0,0,1,.015-1.26l4.425-4.216H.881A.879.879,0,0,1,0,11.253V10.078A.879.879,0,0,1,.881,9.2H11.435L7.01,4.981A.876.876,0,0,1,7,3.721Z" transform="translate(0 -2.647)" fill="#fff"/>
  </g>
</svg>
