<svg xmlns="http://www.w3.org/2000/svg" width="58.02" height="58.02" viewBox="0 0 58.02 58.02">
  <g id="Grupo_43662" data-name="Grupo 43662" transform="translate(-150.99 -313.938)">
    <path id="Trazado_82879" data-name="Trazado 82879" d="M69.185,42.592A26.592,26.592,0,1,1,42.592,16,26.592,26.592,0,0,1,69.185,42.592Zm0,0" transform="translate(137.408 300.355)" fill="#1ca512" opacity="0.2"/>
    <g id="Grupo_18010" data-name="Grupo 18010" transform="translate(150.99 313.938)">
      <path id="Trazado_82880" data-name="Trazado 82880" d="M53.871,19.281a2.416,2.416,0,0,0-1.641,3A24.141,24.141,0,1,1,42.488,8.93a2.417,2.417,0,0,0,2.7-4.009,29.023,29.023,0,1,0,11.68,16A2.415,2.415,0,0,0,53.871,19.281Zm0,0" transform="translate(0 0)" fill="#18a512"/>
      <path id="Trazado_82881" data-name="Trazado 82881" d="M148.973,32.711,124.09,57.593l-7.961-7.959a2.417,2.417,0,0,0-3.418,3.418l9.67,9.67a2.417,2.417,0,0,0,3.418,0l26.592-26.592a2.417,2.417,0,1,0-3.418-3.418Zm0,0" transform="translate(-95.08 -27.168)" fill="#18a512"/>
    </g>
  </g>
</svg>
