<svg id="ic_arrow_back" xmlns="http://www.w3.org/2000/svg" width="15.988" height="15.583" viewBox="0 0 15.988 15.583">
  <path id="Icon_awesome-arrow-left" data-name="Icon awesome-arrow-left" d="M9.187,17.186l-.792.792a.853.853,0,0,1-1.21,0L.248,11.045a.853.853,0,0,1,0-1.21L7.185,2.9a.853.853,0,0,1,1.21,0l.792.792a.857.857,0,0,1-.014,1.224l-4.3,4.1H15.128a.854.854,0,0,1,.856.856V11.01a.854.854,0,0,1-.856.856H4.873l4.3,4.1A.851.851,0,0,1,9.187,17.186Z" transform="translate(0.004 -2.647)" fill="#fff"/>
</svg>
