<svg xmlns="http://www.w3.org/2000/svg" width="27.134" height="20.069" viewBox="0 0 27.134 20.069">
  <g id="noun-cart-next-2745421" transform="translate(0.402 0.4)">
    <path id="Trazado_105576" data-name="Trazado 105576" d="M136.858,106.926h-3l-1.188,2.9a.207.207,0,0,1-.019.109l-4.438,10.784-.058.135a.37.37,0,0,1-.116.148.306.306,0,0,1-.173.051H115.019a.319.319,0,0,1-.3-.212l-3.854-10.919a.346.346,0,0,1,.038-.3.336.336,0,0,1,.264-.135h6.121a4.808,4.808,0,0,1,9.6,0h5.235l1.233-3.012a.315.315,0,0,1,.3-.2h3.211a.321.321,0,0,1,0,.642Zm-14.773-1.285a4.175,4.175,0,1,0,4.175,4.175A4.183,4.183,0,0,0,122.085,105.641Zm7.065,4.5h-2.267a4.808,4.808,0,0,1-9.6,0h-5.665l3.629,10.277h12.4l4.207-10.277Z" transform="translate(-110.846 -104.999)" fill="#fff" stroke="#feffff" stroke-width="0.8"/>
    <path id="Trazado_105577" data-name="Trazado 105577" d="M300.712,398.272a1.606,1.606,0,1,1-1.606-1.606A1.606,1.606,0,0,1,300.712,398.272Zm-1.606-.963a.963.963,0,1,0,.963.963A.962.962,0,0,0,299.106,397.308Z" transform="translate(-284.656 -380.609)" fill="#fff" stroke="#feffff" stroke-width="0.8"/>
    <path id="Trazado_105578" data-name="Trazado 105578" d="M440.712,398.272a1.606,1.606,0,1,1-1.606-1.606A1.606,1.606,0,0,1,440.712,398.272Zm-1.606-.963a.963.963,0,1,0,.963.963A.962.962,0,0,0,439.106,397.308Z" transform="translate(-432.363 -380.609)" fill="#fff" stroke="#feffff" stroke-width="0.8"/>
    <path id="Trazado_105579" data-name="Trazado 105579" d="M322.854,154.8a.261.261,0,0,1,0,.374.264.264,0,0,1-.184.074.247.247,0,0,1-.184-.079l-1.582-1.582a.207.207,0,0,1-.053-.084.3.3,0,0,1-.016-.137c0-.011.005-.021.005-.032a.3.3,0,0,1,.063-.121l1.582-1.582a.265.265,0,1,1,.374.374l-1.134,1.134h4.635a.264.264,0,0,1,0,.527h-4.635Z" transform="translate(-312.485 -148.584)" fill="#fff" stroke="#feffff" stroke-width="0.4"/>
  </g>
</svg>
