<svg xmlns="http://www.w3.org/2000/svg" width="24.609" height="29.626" viewBox="0 0 24.609 29.626">
  <g id="Grupo_43589" data-name="Grupo 43589" transform="translate(-116.201 -1312)">
    <path id="Trazado_105561" data-name="Trazado 105561" d="M9790.528-9715.025h2.914l2.221,1.057,1.129-1.057v-1.053l-1.655-.8h-1.086l-.608,1.314h-2.914l-2.043-4.465.8-3.616,2.646-2.263,3.732-.7,3,.7,2.522,2.263.971,2.6-.385,2.326-1.415,3.155-1.693,2.205-1.869,1.016h-2.741l-1.633-1.016-1.89-1.039Z" transform="translate(-9666.952 11042.865)" fill="#d1e8ff"/>
    <path id="Trazado_105560" data-name="Trazado 105560" d="M9790.908-9625.643h-20.316v-2.4l1.665-2.764a11.96,11.96,0,0,1,2.115-1.757c.5-.145,3.185-.679,3.185-.679h7.918l2.691,1.538,1.462,1.56.824,2.1Z" transform="translate(-9652.316 10966.502)" fill="#d1e8ff"/>
    <g id="noun-support-1402754" transform="translate(116.201 1312)">
      <ellipse id="Elipse_10506" data-name="Elipse 10506" cx="2" cy="1" rx="2" ry="1" transform="translate(9.805 14.451)" fill="#fff"/>
      <path id="Trazado_105566" data-name="Trazado 105566" d="M3.842,9.773v4.152S.119,12.683.387,11.129,3.842,9.773,3.842,9.773Z" fill="#fff"/>
      <path id="Trazado_105567" data-name="Trazado 105567" d="M.373,9.773v4.152s3.723-1.242,3.455-2.8S.373,9.773.373,9.773Z" transform="translate(19.906)" fill="#fff"/>
      <path id="Trazado_105553" data-name="Trazado 105553" d="M228.007,99.958c-4.209,0-7.377-5.488-7.377-9.047,0-3.695,3.309-6.7,7.377-6.7s7.377,3.006,7.377,6.7C235.383,94.47,232.216,99.958,228.007,99.958Zm0-14.513c-3.387,0-6.142,2.452-6.142,5.467s2.811,7.812,6.142,7.812,6.143-4.8,6.143-7.812S231.394,85.445,228.007,85.445Z" transform="translate(-215.74 -80.618)" fill="#0078c4"/>
      <path id="Trazado_105554" data-name="Trazado 105554" d="M194.5,31.316a.617.617,0,0,1-.617-.617V29.527c0-3.722-3.633-6.75-8.1-6.75h-1.3c-4.465,0-8.1,3.028-8.1,6.75v1.147a.617.617,0,1,1-1.235,0V29.527c0-4.4,4.187-7.984,9.333-7.984h1.3c5.146,0,9.333,3.582,9.333,7.984V30.7a.617.617,0,0,1-.617.617Z" transform="translate(-172.868 -21.543)" fill="#0078c4"/>
      <path id="Trazado_105555" data-name="Trazado 105555" d="M139.023,175.673h-.57a2.9,2.9,0,1,1,0-5.779h.57a.617.617,0,0,1,.617.617v4.545a.617.617,0,0,1-.617.617Zm-.617-4.544a1.666,1.666,0,1,0,0,3.309Z" transform="translate(-135.311 -161.392)" fill="#0078c4"/>
      <path id="Trazado_105556" data-name="Trazado 105556" d="M490.338,175.672h-.57a.617.617,0,0,1-.617-.617V170.51a.617.617,0,0,1,.617-.617h.57a2.9,2.9,0,1,1,0,5.779Zm.047-4.544v3.309a1.666,1.666,0,1,0,0-3.309Z" transform="translate(-468.871 -161.391)" fill="#0078c4"/>
      <path id="Trazado_105557" data-name="Trazado 105557" d="M185.283,394.374H165.357a.617.617,0,0,1-.617-.617v-1.026c0-3.924,3.516-7.117,7.839-7.117h5.483c4.322,0,7.839,3.192,7.839,7.117v1.026a.617.617,0,0,1-.617.617Zm-19.309-1.234h18.691v-.409c0-3.243-2.963-5.882-6.6-5.882h-5.483c-3.642,0-6.6,2.639-6.6,5.882Z" transform="translate(-163.053 -364.748)" fill="#0078c4"/>
      <path id="Trazado_105558" data-name="Trazado 105558" d="M171.4,249.538h-6.523a2.471,2.471,0,0,1-2.56-2.365v-.45a.617.617,0,0,1,1.235,0v.45a1.241,1.241,0,0,0,1.325,1.131H171.4a.617.617,0,1,1,0,1.235Z" transform="translate(-160.768 -233.235)" fill="#0078c4"/>
      <path id="Trazado_105559" data-name="Trazado 105559" d="M311.722,259.486a2.031,2.031,0,1,1,2.181-2.025A2.11,2.11,0,0,1,311.722,259.486Zm0-2.815a.8.8,0,1,0,.947.79A.88.88,0,0,0,311.722,256.67Z" transform="translate(-299.555 -242.031)" fill="#0078c4"/>
    </g>
  </g>
</svg>
