<svg xmlns="http://www.w3.org/2000/svg" xmlns:xlink="http://www.w3.org/1999/xlink" width="33" height="33" viewBox="0 0 33 33">
  <defs>
    <clipPath id="clip-path">
      <rect id="Rectángulo_11437" data-name="Rectángulo 11437" width="33" height="33" transform="translate(0 0)" fill="none"/>
    </clipPath>
  </defs>
  <g id="Grupo_43675" data-name="Grupo 43675" transform="translate(0 -0.004)">
    <g id="Grupo_43674" data-name="Grupo 43674" transform="translate(0 0.004)" clip-path="url(#clip-path)">
      <path id="Trazado_105571" data-name="Trazado 105571" d="M33,16.5A16.5,16.5,0,1,1,16.5,0,16.5,16.5,0,0,1,33,16.5" transform="translate(0 -0.004)" fill="#39b54a"/>
      <path id="Trazado_105572" data-name="Trazado 105572" d="M265.494,269.361s0-2.857,2.423-3.833a.925.925,0,0,1,.113-.038,1.3,1.3,0,0,1,.434-.045,4.531,4.531,0,0,1,.9.123l.071.024c.11.035.46.2.671.859l1.013,2.911s.3.788-.21,1.21c-.016.013-.032.027-.047.042l-.946.946a.866.866,0,0,0-.233.409.519.519,0,0,0,.047.4.956.956,0,0,1,.065.12,11.735,11.735,0,0,0,5.23,5.206.723.723,0,0,0,.85-.181l.739-.722a.869.869,0,0,0,.087-.1,1.117,1.117,0,0,1,1.343-.372l3.073,1.048.07.023a1.08,1.08,0,0,1,.736.867c.007.049.014.1.022.146a2.738,2.738,0,0,1-.013,1.1s-.741,2.351-4,2.441a8.438,8.438,0,0,1-4.407-1.543q-.093-.063-.189-.121a19.257,19.257,0,0,1-6.777-7.177,9.049,9.049,0,0,1-1.067-3.743" transform="translate(-257.244 -257.194)" fill="#fff"/>
    </g>
  </g>
</svg>
