<svg xmlns="http://www.w3.org/2000/svg" width="44" height="44" viewBox="0 0 44 44">
  <g id="Grupo_43871" data-name="Grupo 43871" transform="translate(-1310 -106)">
    <circle id="Elipse_1" data-name="Elipse 1" cx="22" cy="22" r="22" transform="translate(1310 106)" fill="#e73638"/>
    <g id="Grupo_43870" data-name="Grupo 43870" transform="translate(1315.019 111.819)">
      <path id="Trazado_84960" data-name="Trazado 84960" d="M105.824,72.852V90.293l-17.776-.5a17.178,17.178,0,0,1-6.1-1.985l.716-1.65,1.982-4.569a1.942,1.942,0,0,0-2.574-2.573l-4.058,1.763-1.658.721a20.693,20.693,0,0,1-1.434-8.487c0-1.993,2.492-13.787,15.451-13.787S105.824,72.852,105.824,72.852Z" transform="translate(-71.905 -57.922)" fill="#fff"/>
      <path id="Trazado_84961" data-name="Trazado 84961" d="M105.773,73.318V90.166H88.929l-.365,0c-.056,0-.111,0-.167-.005-.111,0-.221-.009-.332-.014-.127-.005-.251-.013-.378-.021-.173-.014-.348-.03-.521-.046-.232-.024-.464-.054-.694-.089-.049-.005-.1-.014-.146-.022-.108-.016-.218-.035-.326-.054-.157-.027-.311-.054-.462-.086s-.27-.057-.4-.089c-.076-.016-.151-.033-.224-.054l-.211-.051c-.1-.024-.194-.051-.288-.078s-.192-.054-.287-.084-.192-.056-.286-.086-.186-.059-.281-.092L83.28,89.2c-.094-.035-.186-.068-.281-.105l-.275-.105c-.181-.073-.362-.149-.543-.23-.243-.105-.481-.219-.718-.337-.057-.027-.116-.057-.176-.087l-.108-.056a.252.252,0,0,1-.043-.024c-.157-.081-.308-.165-.459-.251-.13-.07-.26-.146-.386-.224a.108.108,0,0,1-.022-.013l-.329-.2.521-1.2.716-1.65A13.459,13.459,0,0,0,84.031,86.2c.089.037.178.067.265.1.154.056.308.108.467.159.092.029.186.059.279.086.073.019.148.043.218.059.167.048.335.092.505.13.056.013.111.027.167.038q.194.044.389.081c.07.016.143.03.216.041s.173.029.26.043.167.027.251.035c.111.016.219.029.327.04l.213.024.113.011c.057,0,.113.008.167.014.113.008.227.016.343.021s.259.011.391.014c.108,0,.219.005.327.005h13.785V73.318c0-.119,0-.238-.005-.353,0-.065-.005-.127-.005-.192s-.008-.151-.014-.23c0-.1-.011-.2-.019-.3-.005-.059-.008-.121-.013-.178-.008-.1-.019-.189-.03-.284-.013-.127-.029-.251-.048-.378s-.032-.232-.051-.349L102.52,71c-.019-.105-.038-.211-.06-.319a.256.256,0,0,0-.008-.046c-.046-.241-.1-.481-.162-.716-.043-.175-.089-.345-.143-.518s-.1-.34-.159-.508v0a13.844,13.844,0,0,0-7.636-8.249,13.139,13.139,0,0,0-1.982-.675c-.1-.024-.2-.051-.294-.073-.113-.027-.227-.051-.34-.076-.224-.046-.454-.089-.683-.124-.116-.017-.235-.035-.348-.049a13.789,13.789,0,0,0-1.774-.113l-1.061.04c-.086.009-.178.014-.265.025l-2.282.413c-.073.019-.143.038-.216.06-.111.032-.219.065-.327.1s-.218.067-.326.108l-.953.367a13.733,13.733,0,0,0-3.572,2.239c-.257.219-.5.451-.74.688-.17.17-.335.343-.5.521-.059.065-.116.13-.17.195-.043.046-.084.094-.127.146-.062.076-.124.149-.184.224s-.124.154-.186.232-.127.165-.189.251c-.246.33-.473.672-.688,1.026-.035.059-.075.121-.108.184-.1.168-.2.34-.289.516a.137.137,0,0,0-.019.035c-.041.075-.081.149-.116.227s-.089.176-.13.267a.04.04,0,0,0-.011.025c-.046.089-.089.178-.127.27-.024.051-.046.1-.067.154-.048.108-.092.216-.135.324s-.094.23-.135.345a13.221,13.221,0,0,0-.427,1.358.665.665,0,0,0-.019.073c-.03.116-.057.229-.081.345s-.054.246-.075.367-.049.246-.07.37c-.016.1-.03.2-.046.294-.008.054-.013.108-.021.162-.014.1-.027.2-.035.294s-.022.205-.033.308c-.005.054-.008.111-.013.167v.008c-.008.116-.016.229-.022.345s-.01.235-.013.354-.005.235-.005.353c0,.14,0,.276.008.41s.008.273.016.405.016.27.029.4.025.267.041.4.032.265.054.394c.035.265.084.527.138.783.024.127.051.251.081.375.032.151.073.3.113.446.027.108.056.216.092.322.035.124.075.251.116.372s.081.243.127.364.086.246.138.365.087.221.13.326a.282.282,0,0,0,.024.051c.046.111.094.224.146.332.041.092.084.181.127.268l-1.658.721-1.153.5c-.167-.346-.321-.7-.465-1.061-.051-.127-.1-.256-.146-.386s-.086-.24-.127-.362c-.006-.016-.014-.035-.019-.051-.041-.121-.081-.243-.119-.37-.032-.1-.062-.208-.094-.313-.04-.138-.078-.278-.116-.421-.03-.113-.057-.227-.087-.343-.019-.084-.04-.167-.054-.251-.027-.108-.049-.216-.071-.324-.032-.151-.059-.3-.086-.454-.024-.13-.043-.262-.062-.391-.014-.084-.027-.168-.035-.251s-.022-.154-.03-.232c-.008-.046-.011-.089-.016-.135-.016-.132-.03-.265-.038-.4-.005-.027-.008-.054-.011-.081-.005-.075-.01-.149-.016-.224-.008-.105-.013-.214-.019-.324-.008-.127-.01-.254-.016-.378-.005-.165-.005-.324-.005-.489l.34-3.394c.057-.275.119-.545.189-.815l.108-.4c.1-.348.211-.694.329-1.034.062-.17.124-.34.192-.508.13-.334.273-.664.424-.988a16.93,16.93,0,0,1,3.351-4.768c.095-.094.192-.189.289-.284.178-.17.362-.337.548-.5.035-.032.07-.062.105-.092.075-.065.151-.127.224-.189s.173-.143.262-.213c.108-.086.216-.17.327-.254a16.736,16.736,0,0,1,4.725-2.5v0c.105-.035.211-.073.321-.105s.214-.068.321-.1c.219-.067.437-.124.659-.181s.443-.108.667-.154.448-.089.675-.127c.092-.016.181-.032.273-.043.076-.014.154-.024.232-.033.176-.027.351-.046.526-.065.084-.008.17-.016.257-.022.17-.019.34-.029.513-.04.086-.005.176-.011.262-.013a.126.126,0,0,1,.033,0c.113-.006.224-.008.337-.011s.235-.006.354-.006.237,0,.356.006.224.005.337.011a.122.122,0,0,1,.032,0c.087,0,.176.008.262.013.17.011.343.022.513.04.086.006.173.014.256.022.176.019.351.038.527.065.078.009.157.019.232.033.092.011.181.027.273.043.226.038.448.081.672.127.208.043.416.092.621.143.092.024.183.046.272.07s.181.051.27.078a16.578,16.578,0,0,1,4.369,1.952,17.433,17.433,0,0,1,1.693,1.22c.267.224.529.451.783.686.381.356.745.726,1.094,1.115.111.127.222.254.332.383a.129.129,0,0,1,.019.022c.111.13.219.264.324.4s.211.27.313.408.2.284.305.427.195.287.289.435.173.27.259.41l.019.032c.089.149.178.3.265.454.075.132.149.267.222.405.132.251.259.5.378.764.035.078.076.159.108.241.081.181.159.364.235.548.024.062.049.124.07.184.1.257.195.516.281.778.038.108.073.214.105.321s.07.224.1.338.065.224.095.337c.019.065.032.127.048.192.027.105.054.208.075.316.038.151.07.305.1.462.024.113.046.23.067.348.027.149.051.3.073.451.018.119.037.235.051.356s.029.224.04.337c.008.068.016.138.022.208,0,.016,0,.029.005.048.011.108.021.214.027.318.011.143.021.287.027.432.008.113.011.23.013.346,0,.062.006.127.006.192C105.773,73.1,105.773,73.208,105.773,73.318Z" transform="translate(-70.416 -56.474)" fill="#07213e"/>
      <path id="Trazado_84962" data-name="Trazado 84962" d="M105.563,80.357a1.2,1.2,0,0,1,1.2,1.2v3.272a7.678,7.678,0,1,1-15.355,0V81.554a1.2,1.2,0,1,1,2.393,0v3.272a5.285,5.285,0,1,0,10.57,0V81.554A1.2,1.2,0,0,1,105.563,80.357Z" transform="translate(-80.568 -69.025)" fill="#07213e"/>
      <g id="Grupo_23226" data-name="Grupo 23226" transform="translate(0 22.543)">
        <path id="Trazado_84963" data-name="Trazado 84963" d="M68.568,108.9a.316.316,0,0,0,.235.286l3.2.98A2.33,2.33,0,0,1,73.54,111.7l.98,3.206a.333.333,0,0,0,.3.225h.01a.326.326,0,0,0,.307-.194l4.553-10.5a.327.327,0,0,0-.3-.459.317.317,0,0,0-.133.031l-10.495,4.564A.315.315,0,0,0,68.568,108.9Z" transform="translate(-68.567 -103.985)" fill="#07213e"/>
      </g>
    </g>
  </g>
</svg>
