<svg xmlns="http://www.w3.org/2000/svg" width="33" height="33" viewBox="0 0 33 33">
  <g id="Grupo_43676" data-name="Grupo 43676" transform="translate(20092 849)">
    <circle id="Elipse_10508" data-name="Elipse 10508" cx="16.5" cy="16.5" r="16.5" transform="translate(-20092 -849)" fill="#07213e"/>
    <g id="Grupo_43666" data-name="Grupo 43666" transform="translate(-20086 -842)">
      <path id="Trazado_84960" data-name="Trazado 84960" d="M91.252,66.429v9.218l-9.395-.263a9.079,9.079,0,0,1-3.222-1.049l.378-.872,1.047-2.415a1.026,1.026,0,0,0-1.36-1.36l-2.145.932L75.68,71a10.937,10.937,0,0,1-.758-4.485,7.963,7.963,0,0,1,8.166-7.287C89.935,59.229,91.252,66.429,91.252,66.429Z" transform="translate(-73.326 -58.538)" fill="#e63537"/>
      <path id="Trazado_84961" data-name="Trazado 84961" d="M89.89,65.376v8.9h-8.9l-.193,0-.089,0-.175-.007c-.067,0-.133-.007-.2-.011l-.276-.024c-.123-.013-.245-.029-.367-.047-.026,0-.051-.007-.077-.012l-.173-.028c-.083-.014-.164-.029-.244-.046s-.143-.03-.213-.047c-.04-.009-.08-.017-.119-.029L78.752,74c-.051-.013-.1-.027-.152-.041s-.1-.029-.151-.044l-.151-.046c-.05-.014-.1-.031-.148-.048L78,73.768c-.05-.019-.1-.036-.148-.056l-.145-.056c-.1-.039-.191-.078-.287-.121-.129-.056-.254-.116-.38-.178l-.093-.046-.057-.03a.134.134,0,0,1-.023-.013c-.083-.043-.163-.087-.242-.133s-.137-.077-.2-.118a.057.057,0,0,1-.012-.007l-.174-.107.276-.632.378-.872a7.113,7.113,0,0,0,1.508.788c.047.02.094.036.14.051.081.03.163.057.247.084l.147.046c.038.01.078.023.115.031.089.026.177.048.267.068.03.007.058.014.089.02q.1.023.205.043c.037.009.076.016.114.022l.137.023c.044.007.089.014.133.019s.116.016.173.021l.113.013.06.006.089.007c.06,0,.12.009.181.011s.137.006.207.007l.173,0h7.285V65.376c0-.063,0-.126,0-.187,0-.034,0-.067,0-.1s0-.08-.007-.121-.006-.107-.01-.16c0-.031,0-.064-.007-.094,0-.051-.01-.1-.016-.15-.007-.067-.016-.133-.026-.2s-.017-.123-.027-.184l0-.026c-.01-.056-.02-.111-.032-.169a.136.136,0,0,0,0-.024c-.024-.127-.053-.254-.086-.378-.023-.093-.047-.183-.076-.274s-.054-.18-.084-.268h0a7.317,7.317,0,0,0-4.036-4.36,6.942,6.942,0,0,0-1.047-.357c-.051-.013-.1-.027-.155-.038l-.18-.04c-.119-.024-.24-.047-.361-.065-.061-.009-.124-.019-.184-.026a7.289,7.289,0,0,0-.938-.06l-.561.021c-.046,0-.094.007-.14.013l-1.206.218-.114.032c-.058.017-.116.034-.173.053s-.115.036-.173.057l-.5.194a7.258,7.258,0,0,0-1.888,1.183c-.136.116-.266.238-.391.364-.09.09-.177.181-.263.275-.031.034-.061.068-.09.1s-.044.05-.067.077-.066.078-.1.119-.066.081-.1.123-.067.087-.1.133c-.13.174-.25.355-.364.542-.019.031-.04.064-.057.1-.054.089-.1.18-.153.273a.072.072,0,0,0-.01.019c-.022.04-.043.078-.061.12s-.047.093-.068.141a.021.021,0,0,0-.006.013c-.024.047-.047.094-.067.143-.013.027-.024.054-.036.081-.026.057-.048.114-.071.171s-.05.121-.071.183a6.987,6.987,0,0,0-.225.718.35.35,0,0,0-.01.039c-.016.061-.03.121-.043.183s-.029.13-.04.194-.026.13-.037.2-.016.1-.024.155c0,.029-.007.057-.011.086-.007.053-.014.1-.019.155s-.012.109-.017.163c0,.029,0,.058-.007.089v0c0,.061-.009.121-.012.183s-.006.124-.007.187,0,.124,0,.187,0,.146,0,.217,0,.144.009.214.009.143.016.213.013.141.022.211.017.14.029.208c.019.14.044.278.073.414.013.067.027.133.043.2s.038.157.06.235c.014.057.03.114.048.17s.04.133.061.2.043.128.067.193.046.13.073.193.046.117.069.173a.149.149,0,0,0,.013.027c.024.059.05.119.077.176s.044.1.067.141l-.876.381-.609.266c-.089-.183-.17-.371-.245-.561-.027-.067-.051-.135-.077-.2s-.046-.127-.067-.191c0-.009-.007-.019-.01-.027-.022-.064-.043-.128-.063-.2s-.033-.11-.05-.166c-.021-.073-.041-.147-.061-.223-.016-.06-.03-.12-.046-.181-.01-.044-.021-.089-.028-.133s-.026-.114-.037-.171c-.017-.08-.031-.16-.046-.24s-.023-.138-.033-.207c-.007-.044-.014-.089-.019-.133s-.012-.081-.016-.123c0-.024-.006-.047-.009-.071-.009-.07-.016-.14-.02-.21,0-.014,0-.029-.006-.043,0-.04-.006-.078-.009-.118,0-.056-.007-.113-.01-.171s-.006-.134-.009-.2c0-.087,0-.171,0-.258l.18-1.794c.03-.145.063-.288.1-.431l.057-.213c.053-.184.111-.367.174-.547.033-.09.066-.18.1-.268.069-.177.144-.351.224-.522a8.947,8.947,0,0,1,1.771-2.52l.153-.15c.094-.09.191-.178.29-.263l.056-.048.118-.1c.046-.038.091-.075.138-.113s.114-.09.173-.134a8.845,8.845,0,0,1,2.5-1.323h0c.056-.019.111-.039.17-.056l.17-.053c.116-.036.231-.066.348-.1s.234-.057.353-.081.237-.047.357-.067c.049-.009.1-.017.144-.023s.081-.013.123-.017c.093-.014.186-.024.278-.034l.136-.012c.09-.01.18-.016.271-.021.046,0,.093-.006.138-.007a.067.067,0,0,1,.017,0c.06,0,.118,0,.178-.006s.124,0,.187,0,.125,0,.188,0,.118,0,.178.006a.065.065,0,0,1,.017,0c.046,0,.093,0,.138.007.09.006.181.012.271.021l.135.012c.093.01.186.02.278.034.041,0,.083.01.123.017s.1.014.144.023c.12.02.237.043.355.067s.22.049.328.076l.144.037.143.041a8.762,8.762,0,0,1,2.309,1.032,9.215,9.215,0,0,1,.895.645c.141.118.28.238.414.363.2.188.394.384.578.589.058.067.117.134.176.2a.068.068,0,0,1,.01.012c.058.068.116.14.171.211s.111.143.165.215.108.15.161.225.1.151.153.23.091.143.137.217l.01.017c.047.078.094.16.14.24s.078.141.117.214c.07.133.137.265.2.4.019.041.04.084.057.127.043.1.084.193.124.29.013.033.026.066.037.1.053.136.1.273.148.411.02.057.039.113.056.17s.037.119.053.179.034.118.05.178c.01.034.017.067.026.1.014.056.029.11.04.167.02.08.037.161.054.244.013.06.024.121.036.184.014.078.027.158.039.238.01.063.02.124.027.188s.016.118.021.178c0,.036.009.073.012.11,0,.009,0,.016,0,.026.006.057.011.113.014.168.006.076.011.151.014.228,0,.06.006.121.007.183,0,.033,0,.067,0,.1C89.89,65.261,89.89,65.318,89.89,65.376Z" transform="translate(-71.203 -56.474)" fill="#f8f8f8"/>
      <path id="Trazado_84962" data-name="Trazado 84962" d="M98.887,80.357a.632.632,0,0,1,.632.632v1.729a4.058,4.058,0,1,1-8.116,0V80.989a.632.632,0,1,1,1.265,0v1.729a2.793,2.793,0,0,0,5.587,0V80.989A.632.632,0,0,1,98.887,80.357Z" transform="translate(-85.677 -74.368)" fill="#f8f8f8"/>
      <g id="Grupo_23226" data-name="Grupo 23226" transform="translate(0 11.914)">
        <path id="Trazado_84963" data-name="Trazado 84963" d="M68.568,106.58a.167.167,0,0,0,.124.151l1.689.518a1.231,1.231,0,0,1,.815.815l.518,1.694a.176.176,0,0,0,.156.119h.005a.172.172,0,0,0,.162-.1l2.406-5.547a.173.173,0,0,0-.156-.243.168.168,0,0,0-.07.016l-5.547,2.412A.167.167,0,0,0,68.568,106.58Z" transform="translate(-68.567 -103.985)" fill="#f8f8f8"/>
      </g>
    </g>
  </g>
</svg>
