<svg xmlns="http://www.w3.org/2000/svg" xmlns:xlink="http://www.w3.org/1999/xlink" width="30" height="30" viewBox="0 0 30 30">
  <defs>
    <clipPath id="clip-path">
      <rect id="Rectángulo_11430" data-name="Rectángulo 11430" width="30" height="30" transform="translate(-1.513)" fill="#fff" stroke="#707070" stroke-width="1"/>
    </clipPath>
  </defs>
  <g id="Enmascarar_grupo_24002" data-name="Enmascarar grupo 24002" transform="translate(1.513)" clip-path="url(#clip-path)">
    <g id="noun-help-3520535" transform="translate(-0.502 0.268)">
      <path id="Trazado_105552" data-name="Trazado 105552" d="M103.053,48.852l1.671,5.2-4.8-2.275-3.567,2.275H92.927l-4.17-2.275-3.02-4.366-1.472-6.03,2.714-5.517,4.148-3.792h5.235l4.309,1.777,2.382,2.723c.282.324,1.671,4.809,1.671,4.809v4.308Z" transform="translate(-77.928 -30.927)" fill="#fff"/>
      <path id="Trazado_105553" data-name="Trazado 105553" d="M15086.623-10360.669l-3.295,1.587-1.967,3.148-.822,3.427.822,2.724-.822,4.734,3.971-1.822,2.113,1.822,4.2-1.1,2.607-2.5,1.186-3.859-3.064-1.28-2.85-2.146-1.328-3.148Z" transform="translate(-15080.232 10374.639)" fill="#d1e8ff"/>
      <path id="Trazado_105554" data-name="Trazado 105554" d="M123.927,47.922a12.631,12.631,0,0,0,1.493-5.983c0-6.451-4.783-11.7-10.663-11.7s-10.663,5.248-10.663,11.7a12.3,12.3,0,0,0,.183,2.106A7.823,7.823,0,0,0,98,51.965a8.612,8.612,0,0,0,.975,4.011l-.823,3.209a.744.744,0,0,0,.152.668.577.577,0,0,0,.427.2.357.357,0,0,0,.183-.033l3.016-.969a6.842,6.842,0,0,0,3.412.936,7.532,7.532,0,0,0,7.19-6.618,9.952,9.952,0,0,0,2.255.267,10.193,10.193,0,0,0,5.088-1.4l4.631,1.471a.357.357,0,0,0,.183.033.577.577,0,0,0,.427-.2.745.745,0,0,0,.152-.668ZM105.312,58.651a5.878,5.878,0,0,1-3.047-.869.483.483,0,0,0-.3-.1.357.357,0,0,0-.183.033l-2.194.7.609-2.306a.666.666,0,0,0-.061-.535A7.244,7.244,0,0,1,99.188,52a6.5,6.5,0,0,1,5.332-6.618,11.273,11.273,0,0,0,6.763,7.654,6.219,6.219,0,0,1-5.971,5.615Zm14.624-7.788a.45.45,0,0,0-.457.067,8.772,8.772,0,0,1-4.692,1.37c-5.21,0-9.445-4.646-9.445-10.362s4.235-10.362,9.445-10.362,9.445,4.646,9.445,10.362a11.272,11.272,0,0,1-1.462,5.549.667.667,0,0,0-.061.535l1.066,4.044ZM118.687,39.1a4.349,4.349,0,0,1-2.864,4.679.664.664,0,0,0-.457.635v.836a.612.612,0,1,1-1.219,0v-1a1.957,1.957,0,0,1,1.341-1.771,3.035,3.035,0,0,0,1.98-3.242,2.894,2.894,0,0,0-2.407-2.64,2.55,2.55,0,0,0-2.133.735,3.181,3.181,0,0,0-.914,2.239.767.767,0,0,1-.274.568.574.574,0,0,1-.335.1.643.643,0,0,1-.609-.668,4.636,4.636,0,0,1,1.31-3.242,3.739,3.739,0,0,1,3.077-1.07,4.224,4.224,0,0,1,3.5,3.844Zm-3.5,8.39a.69.69,0,0,1,0,.936.554.554,0,0,1-.853,0,.69.69,0,0,1,0-.936.554.554,0,0,1,.853,0Z" transform="translate(-98 -30.24)" fill="#0078c4"/>
    </g>
  </g>
</svg>
