<svg xmlns="http://www.w3.org/2000/svg" width="17.348" height="16.65" viewBox="0 0 17.348 16.65">
  <g id="ic_shoppingcart" transform="translate(1 1)">
    <path id="Trazado_105743" data-name="Trazado 105743" d="M13.4,30.7a.7.7,0,1,1-.7-.7A.7.7,0,0,1,13.4,30.7Z" transform="translate(-7.117 -16.745)" fill="none" stroke="#fff" stroke-linecap="round" stroke-linejoin="round" stroke-width="2"/>
    <path id="Trazado_105744" data-name="Trazado 105744" d="M29.9,30.7a.7.7,0,1,1-.7-.7A.7.7,0,0,1,29.9,30.7Z" transform="translate(-15.943 -16.745)" fill="none" stroke="#fff" stroke-linecap="round" stroke-linejoin="round" stroke-width="2"/>
    <g id="Grupo_43854" data-name="Grupo 43854">
      <path id="Trazado_105745" data-name="Trazado 105745" d="M1.5,1.5H4.291l1.87,9.341a1.4,1.4,0,0,0,1.4,1.123h6.781a1.4,1.4,0,0,0,1.4-1.123l1.116-5.853H4.988" transform="translate(-1.5 -1.5)" fill="none" stroke="#fff" stroke-linecap="round" stroke-linejoin="round" stroke-width="2"/>
    </g>
  </g>
</svg>
