<svg id="Grupo_43673" data-name="Grupo 43673" xmlns="http://www.w3.org/2000/svg" xmlns:xlink="http://www.w3.org/1999/xlink" width="33" height="33" viewBox="0 0 33 33">
  <defs>
    <clipPath id="clip-path">
      <circle id="Elipse_10507" data-name="Elipse 10507" cx="16.5" cy="16.5" r="16.5" fill="none"/>
    </clipPath>
    <linearGradient id="linear-gradient" y1="1" x2="0.001" y2="1" gradientUnits="objectBoundingBox">
      <stop offset="0" stop-color="#39aef0"/>
      <stop offset="1" stop-color="#259ed8"/>
    </linearGradient>
    <clipPath id="clip-path-2">
      <rect id="Rect치ngulo_11436" data-name="Rect치ngulo 11436" width="33" height="33" fill="none"/>
    </clipPath>
  </defs>
  <g id="Grupo_43670" data-name="Grupo 43670">
    <g id="Grupo_43669" data-name="Grupo 43669" clip-path="url(#clip-path)">
      <rect id="Rect치ngulo_11435" data-name="Rect치ngulo 11435" width="33" height="33" fill="url(#linear-gradient)"/>
    </g>
  </g>
  <g id="Grupo_43672" data-name="Grupo 43672">
    <g id="Grupo_43671" data-name="Grupo 43671" clip-path="url(#clip-path-2)">
      <path id="Trazado_105570" data-name="Trazado 105570" d="M146.064,231.735c4.287-1.8,9.473-4.356,13.967-6.085,4.149-1.521,4.08-1.106,3.457,3.042-.484,3.319-1.037,6.638-1.59,9.957-.207,1.59-1.037,2.42-2.766,1.452l-5.393-3.8c-.761-.622-.553-1.106.069-1.729l4.979-4.7c1.314-1.314.691-1.8-.83-.761l-6.845,4.633a3.319,3.319,0,0,1-3.112.346l-2.351-.83c-1.521-.553-.346-1.175.415-1.521" transform="translate(-138.932 -215.566)" fill="#fff" fill-rule="evenodd"/>
    </g>
  </g>
</svg>
