<svg id="Grupo_43678" data-name="Grupo 43678" xmlns="http://www.w3.org/2000/svg" xmlns:xlink="http://www.w3.org/1999/xlink" width="33" height="33" viewBox="0 0 33 33">
  <defs>
    <clipPath id="clip-path">
      <rect id="Rectángulo_11438" data-name="Rectángulo 11438" width="33" height="33" fill="none"/>
    </clipPath>
  </defs>
  <g id="Grupo_43677" data-name="Grupo 43677" clip-path="url(#clip-path)">
    <path id="Trazado_105573" data-name="Trazado 105573" d="M12.549.478h0A16.55,16.55,0,0,0,.479,20.45h0a16.549,16.549,0,0,0,19.972,12.07h0a16.549,16.549,0,0,0,12.07-19.972h0A16.549,16.549,0,0,0,12.549.478" transform="translate(0 0.001)" fill="#52d131" fill-rule="evenodd"/>
    <path id="Trazado_105574" data-name="Trazado 105574" d="M189.17,193.062a2.972,2.972,0,0,1-.09-2.877,1.775,1.775,0,0,1,.936-.877.922.922,0,0,1,1.137.377c.135.328.743,1.69.766,1.914a.381.381,0,0,1-.042.217c-.187.371-.662.8-.73.983a.315.315,0,0,0,.042.28,8.841,8.841,0,0,0,3.286,3.122.315.315,0,0,0,.282.027c.175-.076.583-.573.944-.779a.387.387,0,0,1,.215-.053c.225.012,1.616.55,1.95.668a.921.921,0,0,1,.435,1.116,1.773,1.773,0,0,1-.828.98,2.974,2.974,0,0,1-2.878.058,12.783,12.783,0,0,1-5.425-5.154" transform="translate(-176.93 -177.408)" fill="#fff" fill-rule="evenodd"/>
    <path id="Trazado_105575" data-name="Trazado 105575" d="M110.529,117.33h0a8.4,8.4,0,0,1-4.647-1.4l-3.246,1.039,1.055-3.136a8.444,8.444,0,1,1,6.838,3.494m0-18.493a10.048,10.048,0,0,0-8.6,15.234l-1.813,5.39,5.562-1.781a10.047,10.047,0,1,0,4.856-18.843" transform="translate(-93.843 -92.649)" fill="#fff" fill-rule="evenodd"/>
  </g>
</svg>
