<svg id="truck-solid" xmlns="http://www.w3.org/2000/svg" width="19" height="15.2" viewBox="0 0 19 15.2">
  <path id="truck-solid-2" data-name="truck-solid" d="M1.425,0A1.425,1.425,0,0,0,0,1.425v9.5A1.425,1.425,0,0,0,1.425,12.35H1.9a2.85,2.85,0,0,0,5.7,0h3.8a2.85,2.85,0,0,0,5.7,0h.95a.95.95,0,1,0,0-1.9V7.045A1.9,1.9,0,0,0,17.495,5.7L15.2,3.405a1.9,1.9,0,0,0-1.345-.555H12.35V1.425A1.425,1.425,0,0,0,10.925,0ZM12.35,4.75h1.505L16.15,7.045V7.6h-3.8Zm-9.025,7.6A1.425,1.425,0,1,1,4.75,13.775,1.425,1.425,0,0,1,3.325,12.35ZM14.25,10.925a1.425,1.425,0,1,1-1.425,1.425A1.425,1.425,0,0,1,14.25,10.925Z" transform="translate(0 0)" fill="#9f9f9f"/>
</svg>
